<!DOCTYPE svg PUBLIC "-//W3C//DTD SVG 1.1//EN" "http://www.w3.org/Graphics/SVG/1.1/DTD/svg11.dtd">
<!-- Uploaded to: SVG Repo, www.svgrepo.com, Transformed by: SVG Repo Mixer Tools -->
<svg height="800px" width="800px" version="1.1" id="Layer_1" xmlns="http://www.w3.org/2000/svg" xmlns:xlink="http://www.w3.org/1999/xlink" viewBox="0 0 512 512" xml:space="preserve" fill="#000000">
<g id="SVGRepo_bgCarrier" stroke-width="0"/>
<g id="SVGRepo_tracerCarrier" stroke-linecap="round" stroke-linejoin="round" stroke="#CCCCCC" stroke-width="1.024"/>
<g id="SVGRepo_iconCarrier"> <path style="fill:#f4ce73;" d="M317.822,222.93v-22.595c0-8.877-7.263-16.14-16.14-16.14h-91.365c-8.877,0-16.14,7.263-16.14,16.14 v22.595H317.822z"/> <path style="fill:#79ccbf;" d="M393.658,216.475H118.347v0.025l-0.006-0.025c-60.901,0-110.271,49.37-110.271,110.271 s49.37,110.271,110.271,110.271c18.741,0,36.391-4.676,51.845-12.924v-0.005C194.715,409.595,219.698,399.2,256,399.2 c36.298,0,61.289,10.393,85.816,24.885l-0.003,0.009c15.454,8.247,33.104,12.924,51.846,12.924 c60.902,0,110.271-49.371,110.271-110.271S454.56,216.475,393.658,216.475z"/> <g> <path style="fill:#ffffff;" d="M310.875,273.313h-25.823c-4.458,0-8.07-3.612-8.07-8.07s3.612-8.07,8.07-8.07h25.823 c4.458,0,8.07,3.612,8.07,8.07C318.944,269.7,315.331,273.313,310.875,273.313z"/> <path style="fill:#ffffff;" d="M226.949,273.313h-25.823c-4.458,0-8.07-3.612-8.07-8.07s3.612-8.07,8.07-8.07h25.823 c4.458,0,8.07,3.612,8.07,8.07C235.019,269.7,231.405,273.313,226.949,273.313z"/> </g> <circle style="fill:#f4ce73;" cx="388.878" cy="280.475" r="22.067"/> <circle style="fill:#f4ce73;" cx="342.612" cy="326.752" r="22.067"/> <circle style="fill:#f4ce73;" cx="388.878" cy="373.019" r="22.067"/> <circle style="fill:#f4ce73;" cx="435.145" cy="326.742" r="22.067"/> <path style="fill:#f4ce73;" d="M101.061,348.812v28.677c0,5.918,4.842,10.76,10.76,10.76h22.613c5.918,0,10.76-4.842,10.76-10.76 v-28.677h28.678c5.918,0,10.76-4.842,10.76-10.76v-22.613c0-5.918-4.842-10.76-10.76-10.76h-28.679v-28.677 c0-5.918-4.842-10.76-10.76-10.76H111.82c-5.918,0-10.76,4.842-10.76,10.76v28.677H72.384c-5.918,0-10.76,4.842-10.76,10.76v22.613 c0,5.918,4.842,10.76,10.76,10.76H101.061z"/> <path style="fill:#27323a;" d="M393.658,208.405h-67.767v-8.07c0-13.349-10.861-24.209-24.209-24.209h-37.613v-6.814 c0-21.556,17.538-39.094,39.094-39.094h54.023c30.457,0,55.234-24.778,55.234-55.234c0-4.458-3.612-8.07-8.07-8.07 s-8.07,3.612-8.07,8.07c0,21.556-17.538,39.094-39.094,39.094h-54.023c-30.457,0-55.234,24.778-55.234,55.234v6.814h-37.613 c-13.349,0-24.209,10.861-24.209,24.209v8.07h-67.761c-0.002-0.001-0.004-0.001-0.006,0C53.087,208.405,0,261.492,0,326.746 C0,392,53.087,445.087,118.341,445.087c19.396,0,38.637-4.798,55.644-13.875c0.183-0.098,0.362-0.202,0.535-0.312 c20.841-12.292,45.153-23.631,81.48-23.631c36.276,0,60.568,11.302,81.385,23.57c0.203,0.132,0.413,0.256,0.629,0.373 c17.008,9.076,36.248,13.874,55.645,13.874c65.254,0,118.341-53.087,118.341-118.341C512,261.492,458.913,208.405,393.658,208.405z M202.248,200.335c0-4.45,3.62-8.07,8.07-8.07h91.365c4.45,0,8.07,3.62,8.07,8.07v8.07H202.248L202.248,200.335L202.248,200.335z M393.658,428.947c-16.632,0-33.126-4.08-47.724-11.802c-0.004-0.002-0.009-0.005-0.013-0.008 C323.059,403.63,296.343,391.13,256,391.13c-40.298,0-67.003,12.477-89.854,25.972c-14.617,7.75-31.141,11.845-47.806,11.845 c-56.354,0-102.201-45.847-102.201-102.201c0-56.201,45.602-101.955,101.748-102.199c0.3,0.017,0.607,0.018,0.917-0.001h274.853 c56.354,0,102.201,45.846,102.201,102.2S450.012,428.947,393.658,428.947z M173.871,296.61h-20.609v-20.607 c0-10.382-8.447-18.83-18.83-18.83H111.82c-10.382,0-18.83,8.447-18.83,18.83v20.607H72.384c-10.382,0-18.83,8.447-18.83,18.83 v22.613c0,10.382,8.447,18.83,18.83,18.83H92.99v20.607c0,10.382,8.447,18.83,18.83,18.83h22.613c10.382,0,18.83-8.447,18.83-18.83 v-20.607h20.608c10.382,0,18.83-8.447,18.83-18.83v-22.613C192.7,305.057,184.253,296.61,173.871,296.61z M176.561,338.052 c0,1.458-1.232,2.69-2.69,2.69h-28.679c-4.458,0-8.07,3.612-8.07,8.07v28.677c0,1.458-1.232,2.69-2.69,2.69H111.82 c-1.458,0-2.69-1.232-2.69-2.69v-28.677c0-4.458-3.612-8.07-8.07-8.07H72.384c-1.458,0-2.69-1.232-2.69-2.69v-22.613 c0-1.458,1.232-2.69,2.69-2.69h28.676c4.458,0,8.07-3.612,8.07-8.07v-28.677c0-1.458,1.232-2.69,2.69-2.69h22.613 c1.458,0,2.69,1.232,2.69,2.69v28.677c0,4.458,3.612,8.07,8.07,8.07h28.678c1.458,0,2.69,1.232,2.69,2.69v22.613H176.561z M388.881,342.877c-16.617,0-30.137,13.519-30.137,30.137c0,16.617,13.519,30.137,30.137,30.137 c16.617,0,30.137-13.519,30.137-30.137S405.498,342.877,388.881,342.877z M388.881,387.011c-7.718,0-13.997-6.279-13.997-13.997 c0-7.718,6.279-13.997,13.997-13.997c7.718,0,13.997,6.279,13.997,13.997C402.878,380.732,396.599,387.011,388.881,387.011z M372.75,326.747c0-16.617-13.519-30.137-30.137-30.137c-16.617,0-30.137,13.519-30.137,30.137 c0,16.617,13.519,30.137,30.137,30.137C359.23,356.884,372.75,343.364,372.75,326.747z M342.613,340.744 c-7.718,0-13.997-6.279-13.997-13.997c0-7.718,6.279-13.997,13.997-13.997s13.997,6.279,13.997,13.997 C356.61,334.465,350.331,340.744,342.613,340.744z M435.147,296.609c-16.617,0-30.137,13.519-30.137,30.137 c0,16.618,13.519,30.137,30.137,30.137c16.617,0,30.137-13.519,30.137-30.137C465.284,310.127,451.765,296.609,435.147,296.609z M435.147,340.743c-7.718,0-13.997-6.279-13.997-13.997c0-7.718,6.279-13.997,13.997-13.997c7.718,0,13.997,6.279,13.997,13.997 C449.145,334.464,442.865,340.743,435.147,340.743z M388.88,310.616c16.617,0,30.137-13.519,30.137-30.137 c0-16.618-13.519-30.137-30.137-30.137c-16.617,0-30.137,13.52-30.137,30.137S372.262,310.616,388.88,310.616z M388.88,266.482 c7.718,0,13.997,6.279,13.997,13.997s-6.279,13.997-13.997,13.997s-13.997-6.279-13.997-13.997 C374.882,272.761,381.162,266.482,388.88,266.482z"/> </g>
</svg>