<?xml version="1.0" encoding="iso-8859-1"?>
<!-- Uploaded to: SVG Repo, www.svgrepo.com, Generator: SVG Repo Mixer Tools -->
<svg height="800px" width="800px" version="1.1" id="Capa_1" xmlns="http://www.w3.org/2000/svg" xmlns:xlink="http://www.w3.org/1999/xlink" 
	 viewBox="0 0 52.495 52.495" xml:space="preserve">
<g>
	<path style="fill:#1D1C1A;" d="M20.383,15.545c-3.645,8.022-8.081,17.467-10.973,23.179c-0.592,1.169-1.773,1.843-2.999,1.843
		c-0.51,0-1.028-0.117-1.514-0.363c-1.655-0.838-2.317-2.858-1.48-4.513c2.462-4.863,6.207-12.793,9.55-20.083
		c-1.857-0.222-3.567-0.67-4.954-1.445c-1.619-0.905-2.198-2.951-1.293-4.57S9.673,7.395,11.29,8.3
		c0.983,0.549,2.652,0.77,4.645,0.766c1.233-2.751,2.302-5.184,3.077-7.016c0.724-1.709,2.695-2.506,4.402-1.784
		c1.708,0.723,2.507,2.693,1.784,4.402c-0.439,1.039-0.969,2.263-1.564,3.616c2.192-0.388,4.305-0.883,6.02-1.397
		c1.774-0.531,3.649,0.475,4.182,2.252s-0.475,3.649-2.252,4.182C31.209,13.434,26.078,14.948,20.383,15.545z M40.757,20.304
		c-0.449,0.62-0.877,1.383-1.261,2.349c-0.685,1.724,0.157,3.676,1.881,4.361c0.407,0.162,0.826,0.238,1.238,0.238
		c1.336,0,2.599-0.803,3.122-2.12c0.391-0.985,0.652-1.153,1.225-1.519c0.46-0.296,1.091-0.7,1.67-1.375
		c0.631-0.736,0.913-1.708,0.774-2.667c-0.137-0.958-0.684-1.81-1.497-2.337c-1.081-0.699-4.208-2.929-5.689-4.826
		c-1.142-1.461-3.253-1.721-4.714-0.579c-1.461,1.142-1.72,3.253-0.579,4.714C37.99,17.904,39.431,19.223,40.757,20.304z
		 M48.048,44.537c-1.076,1.509-3.173,1.86-4.686,0.782c-1.337-0.955-4.094-2.363-7.2-3.475c-0.37,3.007-1.277,5.639-3.099,7.596
		c-1.888,2.029-4.47,3.055-7.679,3.055c-0.206,0-0.414-0.004-0.626-0.013c-4.791-0.193-6.972-2.763-7.846-4.279
		c-1.524-2.642-1.496-6.133,0.072-9.112c1.422-2.701,3.861-4.529,7.053-5.287c1.69-0.402,3.522-0.487,5.39-0.341
		c-0.149-1.764-0.349-3.549-0.537-5.224c-0.305-2.725-0.621-5.542-0.72-8.068c-0.073-1.854,1.371-3.415,3.224-3.487
		c1.87-0.074,3.415,1.371,3.487,3.224c0.09,2.283,0.379,4.856,0.684,7.582c0.275,2.452,0.554,4.93,0.701,7.327
		c4.947,1.499,9.286,3.81,11.001,5.035C48.776,40.93,49.126,43.028,48.048,44.537z M29.589,40.209
		c-0.607-0.069-1.2-0.106-1.768-0.106c-0.797,0-1.548,0.073-2.231,0.235c-1.711,0.406-2.337,1.268-2.66,1.881
		c-0.481,0.914-0.562,1.994-0.197,2.628c0.405,0.702,1.472,0.889,2.296,0.922c1.967,0.075,2.722-0.48,3.119-0.906
		C29.014,43.932,29.436,42.262,29.589,40.209z"/>
</g>
</svg>