<?xml version="1.0" encoding="utf-8"?>
<!-- Uploaded to: SVG Repo, www.svgrepo.com, Generator: SVG Repo Mixer Tools -->
<svg width="800px" height="800px" viewBox="0 0 1024 1024" class="icon"  version="1.1" xmlns="http://www.w3.org/2000/svg"><path d="M903.624874 325.720447H144.021758l757.756027-67.950149c13.321772-1.211256 23.262675-12.939863 22.243909-26.261635l-8.668214-113.075847a24.55277 24.55277 0 0 0-8.605756-16.765099 24.482122 24.482122 0 0 0-18.037788-5.736829l-770.503399 69.095877c-13.321772 1.211256-23.265746 12.939863-22.248004 26.261635l8.671284 113.078919c0.508871 6.500648 3.632745 12.554882 8.602685 16.761003 3.88974 3.250836 8.671285 4.781544 13.579791 5.227958-11.922121 1.65767-21.226167 11.471611-21.226167 23.840146v551.67658c0 13.514262 10.96274 24.477003 24.477003 24.477003h773.561745c13.514262 0 24.477003-10.961716 24.477003-24.477003V350.196426c0-13.514262-10.96274-24.475979-24.477003-24.475979z" fill="#27323A" /><path d="M727.25346 437.330091L789.910122 374.673429h66.419441l-62.656662 62.656662zM299.741405 374.673429l-62.656662 62.656662h-65.590094l62.656662-62.656662zM345.826483 374.673429h65.205113l-62.656662 62.656662h-65.14368zM457.119747 374.673429h65.206137l-62.656663 62.656662h-65.144704zM568.475467 374.673429h63.929352l-62.656663 62.656662h-63.932423zM678.555426 374.673429h65.208184l-62.659734 62.656662h-65.206137zM188.004799 374.673429l-33.464667 33.461596V374.673429zM232.431184 203.90881l64.37679 58.896956c-23.710112 2.166541-45.637641 4.079159-64.7587 5.802358l-64.379861-58.896956c15.299918-1.34129 37.416865-3.316365 64.761771-5.802358zM344.743213 193.83685l64.314333 58.896956a14767.406914 14767.406914 0 0 1-68.202026 6.118739l-64.379861-58.896956c21.161662-1.911594 44.110004-3.951173 68.267554-6.118739zM456.352856 183.831443l64.379862 58.896955c-22.629913 2.03958-45.255731 4.079159-67.565169 6.054234l-64.379861-58.896955c21.989985-1.975075 44.618875-3.953221 67.565168-6.054234zM566.49732 173.951973l64.379862 58.893884a19752.85712 19752.85712 0 0 1-66.037532 5.930344l-64.37679-58.896955c22.055514-1.975075 44.172461-3.952197 66.03446-5.927273zM677.471131 164.007999l64.379862 58.896956c-20.7818 1.912618-43.219223 3.886669-66.866879 5.991777l-64.37679-58.896956c23.07428-2.03958 45.448222-4.079159 66.863807-5.991777zM788.379414 154.064025l64.379861 58.959412c-15.616299 1.338218-38.561569 3.443326-66.863807 5.930344l-64.379862-58.896955c24.542531-2.167565 47.168349-4.207145 66.863808-5.992801zM148.548355 236.544131l39.456444 36.013119c-18.485226 1.65767-31.362631 2.868927-36.460556 3.31534-1.021838-13.448734-1.978146-26.323068-2.995888-39.328459zM871.436991 185.805494l-39.009007-35.693667c18.227207-1.592142 30.977651-2.740941 36.013119-3.188378 1.017742 13.260339 1.974051 26.007711 2.995888 38.882045z" fill="#F4CE73" /><path d="M154.540132 469.965412h724.608763v407.430592H154.540132z" fill="#79CCBF" /><path d="M839.819412 437.330091l39.329483-39.393988v39.393988z" fill="#F4CE73" /><path d="M218.600541 554.103188a16.26749 16.26749 0 0 1 16.31766-16.31766h526.247364c8.984594 0 16.31766 7.267538 16.317661 16.31766 0 8.987665-7.333067 16.31766-16.317661 16.317661H577.590094v110.144464h183.574448c8.984594 0 16.31766 7.267538 16.31766 16.31766 0 8.987665-7.333067 16.31766-16.31766 16.317661H577.590094v101.986145c0 8.987665-7.333067 16.31766-16.317661 16.317661-9.053194 0-16.31766-7.329995-16.31766-16.317661V570.420849H234.918201c-9.053194 0-16.31766-7.329995-16.31766-16.317661z" fill="#FFFFFF" /></svg>