<?xml version="1.0" encoding="utf-8"?>
<!-- Uploaded to: SVG Repo, www.svgrepo.com, Generator: SVG Repo Mixer Tools -->
<svg width="800px" height="800px" viewBox="0 0 1024 1024" class="icon"  version="1.1" xmlns="http://www.w3.org/2000/svg"><path d="M880.459469 291.239061v572.127666c0 27.081767-22.03606 49.121922-49.056394 49.121922h-19.099557c0 9.007119-7.279825 16.352473-16.352473 16.352473h-66.428656c-9.007119 0-16.352473-7.345353-16.352472-16.352473H309.673093c0 9.007119-7.345353 16.352473-16.352473 16.352473h-66.494185c-9.007119 0-16.352473-7.345353-16.352472-16.352473h-19.099557c-27.081767 0-49.056394-22.039132-49.056394-49.121922V291.239061c0-27.085862 21.973603-49.056394 49.056394-49.056393H334.199242c5.173693-14.24634 12.901979-27.212824 23.121378-38.0056l-117.594253-53.398691c0 0.062457 0 0.062457-0.065529 0.062457-4.343322 2.554594-9.517014 4.025917-14.945654 4.025917-16.413906 0-29.764346-13.287984-29.764346-29.767418 0-16.416977 13.349417-29.701889 29.764346-29.70189 14.756235 0 26.826819 10.795847 29.126466 24.848673l-0.382933 0.892828 134.073687 60.872031c14.052826-6.896892 29.573904-11.177756 46.246853-11.177756 23.697826 0 45.288496 8.114291 62.981234 21.270193l312.732462-74.987313c3.639912-12.395156 14.370231-21.718656 27.913162-21.718656 16.413906 0 29.764346 13.283888 29.764346 29.70189 0 16.479434-13.349417 29.767418-29.764346 29.767418-6.76993 0-12.711536-2.684627-17.758268-6.580511L522.501992 219.571184c4.535812 7.024877 8.30371 14.625178 11.240213 22.611484h297.658822c27.022381 0 49.058441 21.970531 49.058442 49.056393z" fill="#27323A" /><path d="M380.254627 257.576783h107.18134c-8.110196-21.908074-28.937047-37.688195-53.654663-37.688195-24.655159 0-45.415457 15.780121-53.526677 37.688195z" fill="#FFFFFF" /><path d="M831.404099 291.239061H191.376454v572.127666l639.962116 0.065529z" fill="#F4CE73" /><path d="M355.982402 770.045723h49.056394v49.056394h-49.056394zM443.74678 770.045723h49.056394v49.056394h-49.056394zM532.724463 770.045723h49.056394v49.056394h-49.056394zM617.676228 770.045723h49.056394v49.056394h-49.056394zM239.921929 674.998448V385.645384c0-36.154415 29.253428-65.407842 65.407842-65.407843h411.227159c36.088886 0 65.407842 29.253428 65.407842 65.407843v289.35204c0 36.091958-29.318956 65.407842-65.407842 65.407843H305.329771c-36.154415 0.001024-65.407842-29.314861-65.407842-65.406819z" fill="#27323A" /><path d="M272.62585 674.998448c0 18.013215 14.625178 32.703921 32.703921 32.703921h411.227159c18.013215 0 32.703921-14.690707 32.703921-32.703921V385.645384c0-18.013215-14.690707-32.703921-32.703921-32.703921H305.329771c-18.078743 0-32.703921 14.690707-32.703921 32.703921v289.353064z" fill="#FFFFFF" /><path d="M305.329771 385.645384h411.227159v289.35204H305.329771z" fill="#79CCBF" /></svg>